<svg width="38" height="32" viewBox="0 0 38 32" fill="none" xmlns="http://www.w3.org/2000/svg">
<path d="M16.6806 13.9999L25.3194 13.9999C25.4496 14.9034 25.5 15.7444 25.5 16.4999C25.5 17.2555 25.4496 18.0965 25.3194 18.9999H16.6806C16.5504 18.0965 16.5 17.2555 16.5 16.4999C16.5 15.7444 16.5504 14.9034 16.6806 13.9999Z" fill="black" stroke="black" stroke-width="43"/>
<path d="M6.88552 12.7329C8.6708 11.6941 10.5862 10.9539 12.5543 10.5167L11.5735 11.8354L8.44186 16.0454L8.00003 16.6394L10.604 19.8309L11.8979 21.4166C10.1606 20.9682 8.47167 20.2809 6.88551 19.358C6.46161 19.1114 6.04505 18.8479 5.63686 18.5676C4.79026 17.9864 3.97969 17.333 3.21441 16.608C3.2054 16.5994 3.1964 16.5909 3.18741 16.5823C3.00295 16.4069 2.82185 16.2279 2.64421 16.0454C2.82185 15.863 3.00295 15.684 3.18742 15.5086C3.19641 15.5 3.20541 15.4915 3.21441 15.4829C3.69738 15.0254 4.19839 14.5964 4.7151 14.196C5.41191 13.6561 6.13728 13.1683 6.88552 12.7329Z" fill="black" stroke="black" stroke-width="43"/>
</svg>
