<svg width="64" height="64" viewBox="0 0 64 64" fill="none" xmlns="http://www.w3.org/2000/svg">
<g clip-path="url(#clip0_41_231)">
<path d="M50.6667 62.1334L49.0667 60.8C43.7333 55.7334 40 52.5334 40 48.5334C40 45.3334 42.6667 42.6667 45.8667 42.6667C47.7333 42.6667 49.6 43.4667 50.6667 44.8C51.7333 43.4667 53.6 42.6667 55.4667 42.6667C58.6667 42.6667 61.3333 45.0667 61.3333 48.5334C61.3333 52.5334 57.6 55.7334 52.2667 60.8L50.6667 62.1334ZM16 58.6667C14.5855 58.6667 13.229 58.1048 12.2288 57.1046C11.2286 56.1044 10.6667 54.7479 10.6667 53.3334V10.6667C10.6667 7.70671 13.04 5.33337 16 5.33337H18.6667V24L25.3333 20L32 24V5.33337H48C49.4145 5.33337 50.7711 5.89528 51.7712 6.89547C52.7714 7.89566 53.3333 9.25222 53.3333 10.6667V34.88L50.6667 34.6667C47.8588 34.669 45.1009 35.4095 42.6695 36.814C40.2381 38.2185 38.2188 40.2377 36.8141 42.6689C35.4094 45.1002 34.6686 47.858 34.6662 50.6659C34.6637 53.4738 35.3996 56.233 36.8 58.6667H16Z" fill="#DEB887"/>
<path d="M50.8235 62.7451L49.2769 61.3226C47.4813 59.6631 45.9969 58.2315 44.8235 57.0279C43.6502 55.8243 42.7169 54.7436 42.0235 53.7858C41.3302 52.828 40.8459 51.9483 40.5707 51.1466C40.2955 50.3449 40.1576 49.5243 40.1569 48.6847C40.1569 46.9704 40.7169 45.5389 41.8369 44.39C42.9569 43.2411 44.3524 42.6666 46.0235 42.6666C46.948 42.6666 47.828 42.8672 48.6635 43.2684C49.4991 43.6696 50.2191 44.235 50.8235 44.9644C51.428 44.235 52.148 43.6696 52.9835 43.2684C53.8191 42.8672 54.6991 42.6666 55.6235 42.6666C57.2946 42.6666 58.6902 43.2411 59.8102 44.39C60.9302 45.5389 61.4902 46.9704 61.4902 48.6847C61.4902 49.5236 61.3526 50.3442 61.0774 51.1466C60.8022 51.949 60.3176 52.8288 59.6235 53.7858C58.9295 54.7429 57.9961 55.8236 56.8235 57.0279C55.6509 58.2322 54.1665 59.6638 52.3702 61.3226L50.8235 62.7451Z" fill="#FF0000"/>
</g>
<defs>
<clipPath id="clip0_41_231">
<rect width="64" height="64" fill="white"/>
</clipPath>
</defs>
</svg>
