<svg width="46" height="53" viewBox="0 0 46 53" fill="none" xmlns="http://www.w3.org/2000/svg">
<g clip-path="url(#clip0_45_238)">
<path d="M41.2083 8.8333H36.0972V13.25C36.0972 13.6753 36.0245 14.0965 35.8832 14.4894C35.742 14.8824 35.5349 15.2394 35.2739 15.5402C35.0128 15.841 34.7029 16.0795 34.3619 16.2423C34.0208 16.4051 33.6553 16.4889 33.2861 16.4889C32.9169 16.4889 32.5514 16.4051 32.2103 16.2423C31.8693 16.0795 31.5594 15.841 31.2984 15.5402C31.0373 15.2394 30.8302 14.8824 30.689 14.4894C30.5477 14.0965 30.475 13.6753 30.475 13.25V8.8333H15.5889V13.25C15.5889 14.109 15.2927 14.9328 14.7655 15.5402C14.2383 16.1476 13.5233 16.4889 12.7778 16.4889C12.0322 16.4889 11.3172 16.1476 10.79 15.5402C10.2628 14.9328 9.96666 14.109 9.96666 13.25V8.8333H4.85555C4.55147 8.82931 4.24978 8.89562 3.96833 9.02831C3.68688 9.161 3.43138 9.35737 3.21694 9.60581C3.00251 9.85425 2.83349 10.1497 2.71989 10.4747C2.60629 10.7997 2.55041 11.1477 2.55555 11.498V44.4464C2.55047 44.7905 2.60429 45.1324 2.71393 45.4526C2.82356 45.7728 2.98687 46.065 3.19452 46.3124C3.40217 46.5599 3.65009 46.7578 3.92414 46.8948C4.19818 47.0318 4.49296 47.1053 4.79166 47.1111H41.2083C41.507 47.1053 41.8018 47.0318 42.0759 46.8948C42.3499 46.7578 42.5978 46.5599 42.8055 46.3124C43.0131 46.065 43.1764 45.7728 43.2861 45.4526C43.3957 45.1324 43.4495 44.7905 43.4444 44.4464V11.498C43.4495 11.1539 43.3957 10.8119 43.2861 10.4918C43.1764 10.1716 43.0131 9.87942 42.8055 9.63197C42.5978 9.38451 42.3499 9.18662 42.0759 9.04958C41.8018 8.91254 41.507 8.83905 41.2083 8.8333ZM12.7778 38.2777H10.2222V35.3333H12.7778V38.2777ZM12.7778 30.9166H10.2222V27.9722H12.7778V30.9166ZM12.7778 23.5555H10.2222V20.6111H12.7778V23.5555ZM20.4444 38.2777H17.8889V35.3333H20.4444V38.2777ZM20.4444 30.9166H17.8889V27.9722H20.4444V30.9166ZM20.4444 23.5555H17.8889V20.6111H20.4444V23.5555ZM28.1111 38.2777H25.5556V35.3333H28.1111V38.2777ZM28.1111 30.9166H25.5556V27.9722H28.1111V30.9166ZM28.1111 23.5555H25.5556V20.6111H28.1111V23.5555ZM35.7778 38.2777H33.2222V35.3333H35.7778V38.2777ZM35.7778 30.9166H33.2222V27.9722H35.7778V30.9166ZM35.7778 23.5555H33.2222V20.6111H35.7778V23.5555Z" fill="#DEB887"/>
<path d="M12.7778 14.7222C13.1167 14.7222 13.4417 14.5671 13.6813 14.291C13.9209 14.0149 14.0556 13.6405 14.0556 13.25V4.41668C14.0556 4.02622 13.9209 3.65176 13.6813 3.37566C13.4417 3.09957 13.1167 2.94446 12.7778 2.94446C12.4389 2.94446 12.1139 3.09957 11.8743 3.37566C11.6346 3.65176 11.5 4.02622 11.5 4.41668V13.25C11.5 13.6405 11.6346 14.0149 11.8743 14.291C12.1139 14.5671 12.4389 14.7222 12.7778 14.7222Z" fill="#DEB887"/>
<path d="M33.2222 14.7222C33.5611 14.7222 33.8861 14.5671 34.1258 14.291C34.3654 14.0149 34.5 13.6405 34.5 13.25V4.41668C34.5 4.02622 34.3654 3.65176 34.1258 3.37566C33.8861 3.09957 33.5611 2.94446 33.2222 2.94446C32.8833 2.94446 32.5583 3.09957 32.3187 3.37566C32.0791 3.65176 31.9445 4.02622 31.9445 4.41668V13.25C31.9445 13.6405 32.0791 14.0149 32.3187 14.291C32.5583 14.5671 32.8833 14.7222 33.2222 14.7222Z" fill="#DEB887"/>
</g>
<defs>
<clipPath id="clip0_45_238">
<rect width="46" height="53" fill="white"/>
</clipPath>
</defs>
</svg>
