<svg width="30" height="40" viewBox="0 0 30 40" fill="none" xmlns="http://www.w3.org/2000/svg">
<path d="M28.5824 27.3804L28.5828 27.3809C28.6354 27.4535 28.6972 27.5395 28.7603 27.6273C28.8304 27.7247 28.902 27.8243 28.9645 27.9104C29.2454 28.2987 29.4275 28.7775 29.4825 29.2912C29.5375 29.8049 29.4621 30.3242 29.2682 30.7858L29.2679 30.7866C28.8544 31.7753 28.0047 32.3545 27.0603 32.3545H2.94864C1.99746 32.3545 1.14214 31.7732 0.730693 30.7816L0.730129 30.7802C0.537061 30.3188 0.462382 29.7999 0.517836 29.2867C0.573291 28.7736 0.755651 28.2954 1.03666 27.9078L1.03668 27.9078L1.03926 27.9041C1.15146 27.7464 1.26184 27.5942 1.37194 27.4423L1.4184 27.3782L1.4185 27.3781L1.43062 27.3614C2.2841 26.183 3.01407 25.1752 3.5129 23.6013C4.01012 22.0325 4.26982 19.9317 4.26982 16.5491C4.26982 13.551 4.79515 11.1182 5.82968 9.19526C6.86013 7.27992 8.41185 5.84002 10.5226 4.84611L10.5514 4.83258L10.5782 4.81551C10.6525 4.76816 10.7161 4.70891 10.7678 4.64238L10.8307 4.56137L10.8566 4.46214C11.499 2.00422 13.2094 0.5 15.0002 0.5C16.791 0.5 18.5021 2.00417 19.1445 4.4647L19.1693 4.5596L19.2281 4.63811C19.2806 4.70821 19.3463 4.77066 19.4239 4.82007L19.4507 4.83711L19.4794 4.85062C21.2911 5.7032 22.6486 6.84703 23.6519 8.34756L23.6521 8.34792C25.0162 10.3841 25.7313 13.1348 25.7313 16.5518C25.7313 19.9332 25.9915 22.0332 26.4889 23.602C26.9871 25.1734 27.7156 26.1812 28.5665 27.3585L28.5824 27.3804ZM17.9206 38.5738C17.0322 39.1816 16.0233 39.4989 15.0003 39.5C13.9773 39.4988 12.9685 39.1814 12.0802 38.5736C11.2443 38.0016 10.543 37.1912 10.0472 36.2143H19.954C19.4581 37.1913 18.7567 38.0018 17.9206 38.5738Z" fill="#FAF8F2" stroke="#372015"/>
</svg>
