<svg width="32" height="42" viewBox="0 0 32 42" fill="none" xmlns="http://www.w3.org/2000/svg">
<path d="M16 23.2222C21.1777 23.2222 25.375 18.2476 25.375 12.1111C25.375 5.97461 21.1777 1 16 1C10.8223 1 6.625 5.97461 6.625 12.1111C6.625 18.2476 10.8223 23.2222 16 23.2222Z" fill="#FAF8F2" stroke="#372015" stroke-linecap="round" stroke-linejoin="round"/>
<path d="M31 40.9999C31 36.285 29.4196 31.7631 26.6066 28.4292C23.7936 25.0952 19.9782 23.2222 16 23.2222C12.0218 23.2222 8.20644 25.0952 5.3934 28.4292C2.58035 31.7631 1 36.285 1 40.9999" stroke="#372015" stroke-linecap="round" stroke-linejoin="round"/>
<path d="M16 23.2222C12.0218 23.2222 8.20644 25.0952 5.3934 28.4292C2.58035 31.7631 1 36.285 1 40.9999H31C31 36.285 29.4196 31.7631 26.6066 28.4292C23.7936 25.0952 19.9782 23.2222 16 23.2222Z" fill="#FAF8F2" stroke="#372015" stroke-linecap="round" stroke-linejoin="round"/>
</svg>
