<svg width="120" height="120" viewBox="0 0 120 120" fill="none" xmlns="http://www.w3.org/2000/svg">
<path d="M60 0.5C75.7804 0.5 90.9144 6.76873 102.073 17.9271C113.231 29.0856 119.5 44.2196 119.5 60C119.5 75.7804 113.231 90.9144 102.073 102.073C90.9144 113.231 75.7804 119.5 60 119.5C44.2196 119.5 29.0856 113.231 17.9271 102.073C6.76873 90.9144 0.5 75.7804 0.5 60C0.5 44.2196 6.76873 29.0856 17.9271 17.9271C29.0856 6.76873 44.2196 0.5 60 0.5ZM52.588 71.7385L39.3705 58.5125C38.8967 58.0387 38.3341 57.6628 37.715 57.4063C37.0959 57.1499 36.4324 57.0179 35.7622 57.0179C35.0921 57.0179 34.4286 57.1499 33.8095 57.4063C33.1904 57.6628 32.6278 58.0387 32.154 58.5125C31.197 59.4695 30.6594 60.7674 30.6594 62.1208C30.6594 63.4741 31.197 64.772 32.154 65.729L48.984 82.559C49.4565 83.0352 50.0186 83.4132 50.6379 83.6712C51.2572 83.9292 51.9214 84.062 52.5923 84.062C53.2631 84.062 53.9273 83.9292 54.5466 83.6712C55.1659 83.4132 55.728 83.0352 56.2005 82.559L91.0505 47.7005C91.5307 47.2286 91.9127 46.6663 92.1745 46.0461C92.4362 45.4259 92.5726 44.7599 92.5758 44.0867C92.5789 43.4135 92.4487 42.7463 92.1927 42.1236C91.9367 41.501 91.5599 40.9352 91.0842 40.4589C90.6084 39.9825 90.0431 39.6051 89.4207 39.3484C88.7983 39.0916 88.1313 38.9607 87.4581 38.963C86.7849 38.9653 86.1188 39.1009 85.4982 39.362C84.8777 39.6231 84.3149 40.0044 83.8425 40.484L52.588 71.7385Z" fill="#21C400"/>
</svg>
