<svg width="30" height="40" viewBox="0 0 30 40" fill="none" xmlns="http://www.w3.org/2000/svg">
<path d="M20.2326 37.5H20.7326V37V23.5C20.7326 23.1876 20.8204 22.91 20.9491 22.7254C21.0768 22.5425 21.2041 22.5 21.2791 22.5H25.4651C25.5401 22.5 25.6674 22.5425 25.7951 22.7254C25.9238 22.91 26.0116 23.1876 26.0116 23.5V37V37.5H26.5116H28.9535C29.0285 37.5 29.1558 37.5425 29.2834 37.7254C29.4122 37.91 29.5 38.1876 29.5 38.5C29.5 38.8124 29.4122 39.09 29.2834 39.2746C29.1558 39.4575 29.0285 39.5 28.9535 39.5H1.04651C0.971519 39.5 0.844204 39.4575 0.716581 39.2746C0.587822 39.09 0.5 38.8124 0.5 38.5C0.5 38.1876 0.587822 37.91 0.716579 37.7254C0.844204 37.5425 0.971519 37.5 1.04651 37.5H3.48837H3.98837V37V13.5C3.98837 13.1876 4.07619 12.91 4.20495 12.7254C4.33258 12.5425 4.4599 12.5 4.53488 12.5H8.72093C8.79592 12.5 8.92324 12.5425 9.05086 12.7254C9.17962 12.91 9.26744 13.1876 9.26744 13.5V37V37.5H9.76744H11.8605H12.3605V37V4.5C12.3605 3.03458 12.3638 2.12012 12.4253 1.45464C12.4819 0.855092 12.566 0.741579 12.5767 0.727161C12.5771 0.726713 12.5773 0.726361 12.5775 0.726092L12.5782 0.725087C12.586 0.713918 12.5924 0.704653 12.6204 0.688061C12.6586 0.665312 12.7484 0.623716 12.9372 0.587003C13.3625 0.506098 13.9648 0.5 15 0.5C16.0349 0.5 16.636 0.506079 17.0629 0.587021C17.2516 0.62373 17.3414 0.665316 17.3797 0.688061C17.4076 0.704652 17.414 0.713917 17.4218 0.725086L17.4225 0.72609C17.4227 0.726358 17.4229 0.726711 17.4233 0.727158C17.434 0.741574 17.518 0.855033 17.5747 1.45418C17.6362 2.11761 17.6395 3.03405 17.6395 4.5V37V37.5H18.1395H20.2326Z" fill="#FAF8F2" stroke="#372015"/>
</svg>
