<svg width="57" height="51" viewBox="0 0 57 51" fill="none" xmlns="http://www.w3.org/2000/svg">
<path d="M0 12.9015V7.90245H6.33333V5.40295C6.33333 4.07712 7.00059 2.80561 8.18832 1.86811C9.37605 0.930611 10.987 0.403931 12.6667 0.403931H31.6667V17.9005L39.5833 14.1512L47.5 17.9005V0.403931H50.6667C53.9917 0.403931 57 2.77846 57 5.40295V45.3951C57 48.0195 53.9917 50.3941 50.6667 50.3941H12.6667C9.34167 50.3941 6.33333 48.0195 6.33333 45.3951V42.8956H0V37.8965H6.33333V27.8985H0V22.8995H6.33333V12.9015H0ZM12.6667 22.8995H6.33333V27.8985H12.6667V22.8995ZM12.6667 12.9015V7.90245H6.33333V12.9015H12.6667ZM12.6667 42.8956V37.8965H6.33333V42.8956H12.6667Z" fill="#DEB887"/>
</svg>
