<svg width="59" height="60" viewBox="0 0 59 60" fill="none" xmlns="http://www.w3.org/2000/svg">
<path d="M58.0231 8.40856L50.6201 0.951986C49.9838 0.340902 49.1384 0 48.2592 0C47.38 0 46.5346 0.340902 45.8983 0.951986L39.3156 7.60245H4.00159C2.9403 7.60245 1.92248 8.02709 1.17204 8.78298C0.421595 9.53886 0 10.564 0 11.633V55.9694C0 57.0384 0.421595 58.0636 1.17204 58.8195C1.92248 59.5754 2.9403 60 4.00159 60H48.0191C49.0804 60 50.0982 59.5754 50.8487 58.8195C51.5991 58.0636 52.0207 57.0384 52.0207 55.9694V19.2105L58.0231 13.1646C58.6486 12.5336 59 11.6783 59 10.7866C59 9.89487 58.6486 9.03958 58.0231 8.40856ZM29.6718 36.0785L21.2885 37.9527L23.2893 29.5893L42.3969 10.3029L48.8594 16.8123L29.6718 36.0785ZM51.0203 14.5149L44.5577 8.0055L48.2592 4.27722L54.7218 10.7866L51.0203 14.5149Z" fill="#DEB887"/>
</svg>
